<?xml version="1.0" encoding="UTF-8"?>
<svg xmlns="http://www.w3.org/2000/svg" width="206" height="169" viewBox="0 0 54 44">
  <path fill="#FFF" fill-opacity=".8" style="line-height:6.65095997px;-inkscape-font-specification:'Roboto Condensed, Bold Italic';font-variant-ligatures:normal;font-variant-caps:normal;font-variant-numeric:normal;font-feature-settings:normal;text-align:start" d="M17.978 1.001c-2.518.021-4.495.778-5.957 1.99-1.463 1.213-2.402 2.843-3.03 4.56-1.253 3.431-1.316 7.306-1.578 9.386-.122.971-.55 1.393-1.1 1.701-.551.308-1.245.413-1.653.441-2.184.15-3.607 1.394-3.659 2.873-.051 1.48 1.285 2.772 3.19 2.91 1.716.126 7.615.244 14.631.308l-.04 5.121 10.485-5.073h.143v4.742h1.365v-4.743c3.954-.007 7.765-.04 10.955-.108 2.067-.044 3.872-.105 5.299-.182 1.426-.077 2.43-.155 3.078-.3 1.18-.266 2.013-.605 2.608-1.102.594-.497.895-1.278.767-1.948-.129-.67-.537-1.17-1.006-1.59a6.274 6.274 0 00-1.607-1.02c-.306-.138-.483-.145-.78-.192a23.124 23.124 0 00-1.068-.137c-.823-.09-1.845-.179-2.87-.264-1.023-.084-2.05-.165-2.87-.236a34.115 34.115 0 01-1.563-.166.859.859 0 00-.138-.02s-.958-.058-1.946-.464-1.868-1.038-2.049-2.309c-.41-2.881-.768-8.134-7.134-11.492C26.573 1.642 22.272.966 17.978 1zm.014 1.717c4.104-.034 8.106.615 11.658 2.488 5.768 3.043 5.802 7.158 6.236 10.215.284 2 1.802 3.123 3.096 3.655 1.278.525 2.441.582 2.47.584.399.079.898.122 1.68.19.832.071 1.86.151 2.88.235 1.018.085 2.03.174 2.822.26.396.044.738.085.988.125.25.04.465.117.343.062.44.197.866.467 1.167.735.3.269.445.534.464.635.02.101.066.096-.185.306s-.852.511-1.88.742c-.36.081-1.398.19-2.794.264-1.395.076-3.189.134-5.244.178-3.172.068-6.972.1-10.918.107v-4.984H29.41v4.85l-10.533-5.216-.041 5.3c-7.064-.066-13.017-.188-14.52-.297-1.267-.092-1.615-.706-1.6-1.14.016-.432.41-1.107 2.06-1.22.538-.036 1.465-.148 2.374-.656s1.78-1.501 1.967-2.984c.287-2.284.374-5.962 1.488-9.012.557-1.525 1.356-2.867 2.514-3.826 1.157-.96 2.681-1.578 4.873-1.596zm6.974 12.674l-2.046 1.33.835.417-1.04 2.042.506.257 1.042-2.045.81.404zm3.074 1.536l-2.046 1.331.834.417-1.039 2.042.506.257 1.041-2.046.81.405zM5.255 36.081a2.194 2.194 0 00-1.172.291c-.346.203-.636.512-.869.927-.233.416-.39.893-.47 1.43l-.154 1.006a3.467 3.467 0 00-.024.632c.027.602.196 1.072.507 1.41.313.338.736.512 1.268.523.668.014 1.219-.21 1.654-.673.438-.466.72-1.115.844-1.946l.137-.926c.03-.208.043-.429.037-.661-.022-.618-.186-1.105-.494-1.46-.305-.357-.726-.542-1.264-.553zm17.247.084l-1.048 6.052h3.272l.178-1.014h-2.082l.873-5.038zm3.99 0l-1.047 6.052h3.375l.18-1.014h-2.188l.279-1.604h1.846l.174-.986h-1.85l.25-1.43h2.174l.179-1.018zm4.09 0l-1.047 6.052h1.638c.707-.003 1.293-.234 1.758-.694.469-.46.764-1.097.886-1.912l.133-.885c.06-.48.025-.914-.108-1.302a1.785 1.785 0 00-.653-.91c-.302-.22-.673-.334-1.114-.345zm6.656 0l-1.047 6.052h1.192l.383-2.211h.607l.498 2.21h1.281v-.065l-.607-2.461c.684-.324 1.061-.901 1.13-1.73.045-.546-.077-.976-.365-1.292-.289-.316-.703-.483-1.243-.5zM5.163 37.1c.433.016.656.334.67.952 0 .155-.017.375-.05.66l-.146 1.028c-.08.554-.221.953-.423 1.197a.919.919 0 01-.778.349c-.443-.02-.672-.32-.686-.902a3.96 3.96 0 01.038-.644l.145-1.019c.08-.565.222-.98.424-1.243a.917.917 0 01.806-.378zm26.438.084l.424.003c.25.009.438.08.566.212.127.133.198.338.212.616.008.146-.008.379-.046.698l-.141.981c-.078.532-.23.919-.458 1.16-.227.238-.547.357-.96.357l-.295-.008zm6.656 0l.76.003c.308.022.467.215.478.578.003.369-.079.665-.245.89a.827.827 0 01-.682.34l-.628-.008zm-28.342.448c-.35-.005-.66.16-.935.499l.062-.415-1.048.003-1.08 6.228H8.06l.399-2.1a.98.98 0 00.823.453c.355.014.661-.088.919-.307.26-.22.462-.553.607-1.002.144-.452.227-1 .25-1.646.019-.549-.069-.97-.263-1.264-.194-.294-.487-.443-.88-.449zm8.222 0c-.385-.01-.736.168-1.052.537l.083-.453-1.072.003-.781 4.498h1.155l.57-3.271c.072-.089.15-.165.232-.23a.472.472 0 01.304-.099c.255 0 .377.162.366.486l-.021.246-.474 2.868h1.151l.479-2.86.025-.382c.002-.427-.08-.755-.246-.985-.163-.233-.403-.352-.719-.358zm24.895 0c-.473-.005-.875.128-1.205.4-.33.268-.507.616-.532 1.043l1.143-.009c.058-.352.222-.523.49-.515.195 0 .292.12.292.361l-.013.187-.054.366h-.337c-.584 0-1.05.136-1.396.408-.347.269-.532.641-.557 1.118-.017.37.079.681.286.93.211.25.49.378.836.383.327 0 .618-.145.873-.436 0 .139.011.255.033.349h1.126l.005-.075a1.346 1.346 0 01-.058-.511l.016-.22.366-2.286c.044-.444-.053-.8-.29-1.07-.236-.27-.577-.412-1.024-.423zm-29.301.004c-.56-.014-1.021.178-1.385.574-.36.393-.586.963-.677 1.708l-.037.308c-.045.402-.011.76.1 1.077.113.313.296.556.548.73.255.175.564.264.927.267.319.006.614-.051.886-.17.274-.12.487-.283.64-.49l-.387-.716c-.324.275-.66.406-1.006.395-.371-.008-.566-.212-.586-.611a2.08 2.08 0 01.013-.345h2.244l.079-.54c.033-.252.04-.51.017-.773-.039-.441-.176-.783-.412-1.027-.233-.247-.554-.376-.964-.387zm33.263 0c-.67-.016-1.187.247-1.55.79-.222.33-.375.741-.458 1.234-.08.494-.1.915-.058 1.264.047.43.194.765.44 1.006.25.238.584.363 1.002.374.463.011.855-.136 1.177-.44.321-.305.506-.707.553-1.206l-1.077.004c-.075.455-.27.678-.586.67-.252-.009-.388-.164-.407-.466-.011-.15 0-.337.033-.561l.079-.753c.077-.654.32-.97.727-.947.26.014.397.192.408.536l-.004.257 1.08.005c.025-.535-.081-.959-.32-1.272-.238-.316-.585-.48-1.039-.495zm3.899 0c-.56-.014-1.02.178-1.384.574-.36.393-.586.963-.678 1.708l-.037.308c-.044.402-.011.76.1 1.077.113.313.296.556.548.73.255.175.564.264.927.267.32.006.614-.051.886-.17.274-.12.488-.283.64-.49l-.387-.716c-.324.275-.66.406-1.006.395-.371-.008-.566-.212-.586-.611a2.07 2.07 0 01.013-.345h2.245l.079-.54c.033-.252.038-.51.016-.773-.039-.441-.176-.783-.412-1.027-.233-.247-.554-.376-.964-.387zm-37.274.969c.288.014.426.197.415.548-.003.1-.018.23-.045.391l-1.143-.003.082-.304c.13-.435.361-.646.69-.632zm37.162 0c.288.014.426.197.415.548-.002.1-.017.23-.045.391l-1.143-.003.083-.304c.13-.435.36-.646.69-.632zm-41.282.012c.144.006.25.061.316.166.07.106.104.289.104.55l-.008.153-.091.848c-.1.684-.364 1.016-.79.994-.222-.012-.378-.107-.466-.287l.374-2.12c.169-.208.356-.31.561-.304zm33.322 1.55h.249l-.204.953c-.175.183-.363.271-.565.266a.253.253 0 01-.2-.092.354.354 0 01-.066-.22l.004-.158a.892.892 0 01.245-.524.775.775 0 01.537-.224z" font-style="italic" font-weight="700" font-size="8.513" font-family="Roboto Condensed" letter-spacing="0" word-spacing="0"/>
</svg>
